<?xml version="1.0" encoding="UTF-8"?>
<svg id="katman_1" data-name="katman 1" xmlns="http://www.w3.org/2000/svg" viewBox="0 0 580.49 391.34">
  <defs>
    <style>
      .cls-1 {
        fill: #fff;
      }

      .cls-2 {
        fill: #242424;
      }

      .cls-3 {
        fill: #3585be;
      }
    </style>
  </defs>
  <path class="cls-3" d="M564.73,351.3c.11-49.64-7.98-125.07-52-198-13.87-22.97-30.84-50.46-64-74,0,0-62.45-44.33-140-40-6.27,.35-31.98,2.39-49,5-1.5,.23-9.27,1.44-20,3-7.95,1.16-13.66,1.95-14,2-9.09,1.29-37.16,19.03-113,82-3.67,8.67-7.33,17.33-11,26-12.7,2.82-39.76,10.81-62,35-7.26,7.9-38.53,44.19-29,88,3.07,14.12,9.43,24.65,14,31,23.5-37.01,64.94-58.57,108-56,46.99,2.81,88.38,33.91,105,79,7.7,11.59,22.18,29.6,46,41,15.97,7.64,31.48,10.09,63,10,49.21-.14,91.35-6.33,131-14,21.39-4.14,51.31-10.49,87-20Z"/>
  <path class="cls-1" d="M245.73,238.3c4.01,6.85,16.78,29.47,11,58-2.94,14.54-9.58,25.08-14,31-17.31-41.17-55.22-69.97-99-75-47.24-5.43-93.87,17.68-119,59-6.55-8.82-20.75-30.65-19-59,2.46-39.93,35.55-76.34,83-89,20.33,2.67,40.67,5.33,61,8,.33,7,.67,14,1,21,14,1.67,28,3.33,42,5,7.24,2.18,35.85,11.69,53,41Z"/>
  <path class="cls-2" d="M0,264.4c.16-1.74,.34-3.47,.47-5.21,.71-9.11,2.71-17.95,5.66-26.58,6.51-19.02,16.89-35.72,30.42-50.5,10.04-10.96,21.42-20.25,34.68-27.09,4.99-2.57,10.2-4.72,15.06-6.94-2.88-1.03-6.18-2.02-9.33-3.38-3.18-1.37-6.2-3.08-9.54-4.77,3.28-2.23,6.24-4.24,9.21-6.25,35.45-23.98,71.97-46.24,109.18-67.38,16.35-9.29,32.75-18.51,49.3-27.43,16.46-8.88,33.53-16.47,51.31-22.37,16.28-5.4,32.91-9.42,49.85-12.14,14.18-2.28,28.44-3.65,42.79-4.14,14.31-.48,28.6-.23,42.87,1.04,7.66,.68,15.31,1.53,22.96,2.3,0,.11-.02,.22-.03,.32-2.7-.17-5.4-.37-8.11-.51-5.19-.26-10.37-.58-15.56-.69-6.31-.14-12.63-.31-18.94-.06-10.25,.4-20.52,.89-30.74,1.77-19.22,1.66-38.12,5.19-56.73,10.31-25.79,7.09-50.15,17.51-73,31.42-.24,.14-.46,.3-.64,.61,.61-.15,1.22-.28,1.82-.44,13.4-3.59,26.99-6.23,40.77-7.86,10.01-1.19,20.04-1.85,30.12-1.99,19.8-.27,39.44,1.35,58.82,5.43,17.46,3.67,34.2,9.51,50.28,17.22,16.71,8.02,32.28,17.85,46.61,29.62,14.71,12.08,26.97,26.3,37.24,42.28,9.95,15.48,18.32,31.82,26,48.52,13.17,28.64,23.64,58.25,31.74,88.71,4.98,18.72,9.09,37.63,12.18,56.75,1.36,8.43,2.51,16.9,3.75,25.35,.02,.15,0,.31,0,.59-2.6,1.03-5.22,2.08-7.85,3.1-26.42,10.17-53.48,18.21-81.2,23.99-15.76,3.28-31.63,5.95-47.66,7.51-11.65,1.14-23.32,2.02-34.99,2.89-10.75,.8-21.51,1.6-32.29,2.06-11.65,.5-23.32,.78-34.99,.87-13.88,.1-27.7-.88-41.45-2.86-6.44-.93-12.89-1.74-19.2-3.41-14.53-3.86-26.94-11.31-36.98-22.42-11.47-12.68-22.63-25.64-33.9-38.5-10.3-11.75-20.39-23.68-31.54-34.66-5.45-5.37-11.21-10.37-18.21-13.7-5.6-2.66-11.54-4.2-17.59-5.34-7.47-1.41-15.02-2.25-22.63-2.17-16.09,.17-31.45,3.65-45.94,10.67-21.65,10.49-38.13,26.41-49.51,47.61-.13,.24-.28,.47-.53,.88-1.64-1.92-3.26-3.73-4.78-5.62-6.84-8.51-12.21-17.86-15.27-28.37-1.19-4.11-1.82-8.41-2.47-12.65-.59-3.86-.87-7.77-1.3-11.65-.02-.23-.13-.44-.2-.66,0-1.36,0-2.72,0-4.08Zm488.89-23.46c13.6-21.46,20.16-44.68,17.43-70.08-2.73-25.47-14.1-46.71-32.52-64.33,7.56,17.22,11.77,35.15,11.93,54-.33-.45-.52-.95-.69-1.46-2.86-8.88-6.5-17.42-10.82-25.68-10.82-20.65-25.95-37.6-44.51-51.58-21.02-15.83-44.58-26.2-70.03-32.48-10.85-2.68-21.82-4.74-32.96-5.78-6.2-.58-12.41-1.24-18.62-1.33-8.94-.13-17.9,.12-26.84,.42-4.94,.17-9.88,.61-14.78,1.26-7.19,.95-14.33,2.24-21.51,3.27-4.58,.66-8.84,2.01-12.52,4.91-.69,.54-1.48,.95-2.22,1.42-18.35,11.83-36.06,24.58-53.34,37.92-10.12,7.82-20.19,15.71-29.69,24.29-.64,.58-1.3,1.13-1.95,1.69,.09,.12,.18,.23,.27,.35,12.28,2.16,23.7-.19,34.39-6.72-6.06,19.03-17.16,34.41-33.22,46.58,.66-.13,1.01-.19,1.36-.27,.62-.15,1.24-.3,1.86-.46,13.39-3.32,25.58-9.07,35.42-18.87,6.9-6.87,13.29-14.26,19.78-21.54,4.46-5.01,8.51-10.38,13.41-15.01,9.24-8.72,19.61-15.6,31.58-19.98,8.92-3.26,18.08-4.63,27.53-3.2,11.43,1.73,21.16,6.9,29.45,14.87,.82,.78,1.6,1.6,2.4,2.4-16.7-11.03-33.89-12.91-52.02-3.53,5.47,9.7,7.45,19.84,5.15,30.62-2.3,10.79-8.31,19.19-17.04,25.81,9.17-.93,17.74-3.75,25.96-7.81-1.37,1.23-2.8,2.3-4.25,3.34-11.28,8.1-23.22,14.97-36.36,19.63-6.57,2.33-13.29,3.99-20.2,4.88-4.39,.56-8.81,.84-13.19,1.49-10.77,1.58-20.18,6.1-28.2,13.48-.2,.19-.37,.42-.64,.75,1,0,1.79,0,2.59,0,7.33-.08,14.58,.62,21.75,2.15,20.3,4.33,36.7,14.68,48.64,31.76,11.75,16.81,16.74,35.77,17.14,56.05,.1,5.29-.35,10.61-.84,15.88-.88,9.37-3.12,18.46-6.19,27.35-.25,.73-.13,1.25,.27,1.87,5.84,8.99,12.62,17.2,20.41,24.57,12.07,11.42,25.8,20.22,41.26,26.36,15.85,6.3,32.41,8.88,49.35,9.48,8.83,.31,17.65,.15,26.44-.89,7.22-.85,14.36-2.08,21.42-3.79,22.11-5.34,42.56-14.53,61.64-26.83,3.35-2.16,6.61-4.46,9.91-6.69-.04-.09-.08-.18-.12-.27-22.81,8.95-46.45,13.19-70.92,12.45-24.47-.75-47.78-6.39-70.09-16.84,.28-.17,.35-.25,.4-.24,.43,.07,.86,.14,1.28,.25,15.17,3.9,30.61,6,46.25,6.34,7.57,.17,15.18-.19,22.74-.72,8.4-.58,16.7-2.02,24.9-3.96,34.96-8.26,63.96-26.19,87.1-53.63,1.24-1.48,2.44-3,3.65-4.49-8.27,8.11-17.51,14.77-28.03,19.63-10.53,4.86-21.59,7.61-33.16,8.08-11.47,.46-31.11-2.6-33.52-4.97,28.58-2.7,52.89-13.92,70.84-36.87,17.96-22.96,22.77-49.29,18.62-77.64-.2,.4-.28,.82-.3,1.25-.4,6.94-1.76,13.68-4.1,20.22-3.83,10.67-10,19.59-19.49,26.02-2.98,2.02-6.15,3.69-9.62,4.86ZM29.74,298.84c.27-.61,.41-.92,.54-1.23,5.25-12.63,12.62-23.82,22.66-33.18,15.01-14,33.04-21.77,53.02-25.41,10.72-1.95,21.54-2.66,32.43-2.48,6.41,.1,12.75,.78,19.03,2.06,16.22,3.29,30.37,10.76,42.94,21.39,9.78,8.27,18.25,17.78,26.28,27.7,7.4,9.13,14.69,18.34,22.03,27.51,.3,.38,.63,.74,1.03,1.2,.13-.34,.23-.48,.25-.63,.56-5.32,1.35-10.62,1.63-15.95,.42-8-.37-15.96-2.06-23.8-3.81-17.69-11.95-33.09-24.6-46.05-9.02-9.23-19.61-16.2-31.38-21.42-10.16-4.51-20.74-7.75-31.78-9.03-7.32-.85-14.74-1.06-22.12-1.21-11.27-.23-22.54,.14-33.75,1.33-8.21,.87-16.4,1.99-24.59,3.07-2.96,.39-5.89,.99-9.16,1.55,16.75-16.37,36.47-25.88,59.38-28.97-2.4-.37-4.77-.71-7.14-.8-9.29-.34-18.5,.27-27.62,2.13-12.99,2.64-25.25,7.16-36.07,14.92-12.1,8.68-21.88,19.59-29.28,32.53-7.36,12.87-11.22,26.67-10.61,41.61,.4,9.89,2.71,19.32,6.69,28.36,.68,1.55,1.44,3.07,2.27,4.84ZM210.67,142.75c12.32,.69,23.03-2.77,30.94-12.7,6.87-8.62,8.43-18.54,6.45-29.2-10.58,15.66-23.03,29.58-37.38,41.9Z"/>
  <path class="cls-1" d="M210.67,142.75c14.36-12.33,26.81-26.24,37.38-41.9,1.98,10.66,.42,20.58-6.45,29.2-7.91,9.93-18.61,13.39-30.94,12.7Z"/>
</svg>